<?xml version="1.0" encoding="UTF-8"?>
<svg viewBox="-788 -168 2000 678" xmlns="http://www.w3.org/2000/svg">
 <path d="m682.28-24.338c-0.45105 9.9503 4.3055 30.225-37.16 93.153-46.314 70.296-117.73 128.7-187.75 175.99-42.238 28.526-85.511 51.689-130.44 72.176-11.697-3.4723-26.085-8.0399-42.183-13.752-0.10712-0.032501-0.20297-0.080292-0.31009-0.11105 11.156-5.0444 23.215-10.675 36.425-17.073 129.32-62.572 153.28-100.3 152.16-101.32-1.1239-1.0236-33.642 33.419-145.12 92.439-16.234 8.5884-32.88 16.396-49.822 23.492-12.546-4.7127-24.862-9.8614-35.371-14.709 54.138-21.35 111.84-47.911 159.11-76.335 72.761-43.73 141.25-94.968 195.57-152.52 49.627-52.568 70.025-79.636 73.152-84.971 4.9144-8.3867 12.809-19.94 11.729 3.5526zm-32.988 57.838c-1.5599-0.47506-12.511 25.596-51.63 69.208-39.03 43.52-74.062 69.683-72.495 71.104 1.5692 1.4217 31.48-17.881 77.191-69.683 41.121-46.606 48.503-70.16 46.934-70.63zm-288.25 33.385c-5.7339 1.4217-8.5754-4.9384-9.0114-10.159-1.0468-12.326 1.2592-19.697 0.14099-26.274-1.2667-7.4486 3.208-19.506-7.0005-15.509-5.794 2.2676-0.97537 8.1287 1.1182 14.289 2.0898 6.1619 1.5579 26.915 1.5579 31.291 0 7.5819 4.6964 12.028 17.216 16.117 14.398 4.7009 2.9411 35.355-10.951 38.868-14.435 3.6568-22.533-5.398-32.864-3.7901-18.252 2.8434-14.602 18.961-18.252 24.176-3.6496 5.2118-3.6496 5.2118-9.9058 10.904-4.6062 4.1814-7.6112 7.5375-10.836 10.179 0.50549 0.39465 0.86822 1.0799 0.95657 2.2316 0.40024 4.9794 4.7941 8.8003 4.7941 13.776 0 4.9829-1.7459 6.7549-8.7896 8.1731-7.0343 1.4268-10.137-1.0628-10.526-3.1902-0.39093-2.1343 0.58438-9.9128 1.7177-14.07 0.37207-1.3688 0.88699-2.2044 1.4263-2.7597-5.7131 0.93803-12.847 1.302-17.854 1.302-0.18607 0-0.37021 0.003448-0.55814 0.003448 1.214 0.7382 2.5258 1.9941 3.3583 4.2669 1.9845 5.4066 2.2871 9.4786 2.6761 12.676 0.38904 3.1989-4.3055 4.2703-9.0019 4.6241-4.6964 0.35545-10.171-1.0629-10.951-2.8521-0.77997-1.772 0.51303-9.1796 1.3098-13.023 0.48865-2.341 3.1009-4.3506 5.123-5.5946-5.2828 0.10765-10.917 0.28192-16.668 0.36223 1.5335 1.4952 3.0313 3.3356 3.394 5.1076 0.79309 3.8431 2.539 9.6034 2.148 12.085-0.39462 2.4896-1.5673 3.2057-8.9981 3.5611-7.4346 0.35379-9.9416-0.70909-10.725-2.1274-0.78369-1.4251 0.56755-9.9486 1.5053-13.474 0.50554-1.8814 2.0504-3.7388 3.4692-5.1247-4.6382-0.047775-9.2594-0.21018-13.755-0.55528 1.1031 2.787 6.1397 7.5528 4.8073 15.222-0.74419 4.2703-2.9505 6.0423-13.082 6.0594-5.8654 0.00856-8.581-3.5611-8.5941-6.0423-0.03949-6.8164 3.1366-11.57 4.8016-16.444-5.6304-0.57924-9.0452-0.99622-11.828-2.0506 0.38527 2.2966 1.9 8.3629 2.7194 14.578 0.51869 3.8994-1.5636 6.0423-6.6452 6.0423-5.0854 0-8.2183-2.4794-8.2183-4.6205 0-5.6869 9.1917-16.266 9.9453-16.721 0.075211-0.044434 0.16353-0.11276 0.25751-0.17773-0.5356-0.2939-1.0637-0.62026-1.5956-0.99791-4.6964-3.315-10.428-8.0416-13.48-20.07-3.0558-12.028-1.962-19.364-12.148-24.914-10.18-5.5501-28.526 7.7306-37.692 6.8608-10.206-0.97058-23.112-19.533-23.941-28.277-0.97162-10.224 9.9979-5.4784 16.241-18.417 3.9691-8.2381 0.022583-18.53 0.022583-41.659 0-23.134 8.7501-34.912 14.279-46.264 4.0218-8.262-1.5561-14.405 5.5365-35.996 6.0608-18.438 11.522-25.297 11.522-25.297s-9.7592 7.3017-15.491 24.508c-5.0779 15.227-3.5256 22.905-7.6018 34.933-4.0724 12.028-10.229 19.952-13.285 38.456-3.0539 18.506 2.0635 41.071-3.0539 48.543-3.4467 5.0307-14.877-0.40666-16.365-18.981-1.2798-15.931-3.5538-47.436-0.49616-65.94 3.052-18.506 4.8543-11.625 15.621-45.652 12.684-40.104 68.012-64.519 134.07-65.337 57.708-0.716 78.794 16.281 97.649 32.467 19.661 16.883 33.377 40.495 37.549 55.666 4.1721 15.171 7.8236 21.466 10.428 34.268 2.616 12.797 1.2065 31.387-1.338 40.632-2.8303 10.29-8.3856 28.275-15.865 30.133zm-158.31-40.732c-7.429-10.666-27.397-12.512-42.632-13.156-16.822-0.71254-26.028 3.9952-27.772 15.646-1.4095 9.3932 0.39088 23.464 3.9127 33.773 3.0614 8.9678 15.252 20.979 25.814 19.557 8.4832-1.1432 26.589-13.462 37.16-24.531 6.3182-6.6233 7.1019-26.151 3.5181-31.288zm23.473 28.797c-3.9202 0.24947-9.778 12.088-12.516 27.021-1.8023 9.8409-8.9756 23.581-7.4346 31.995 1.0374 5.6561 6.8088 6.466 10.173 0.35544 2.7382-4.9743 4.3018-9.5983 8.2126-9.5983 3.9109 0 12.542 20.834 17.602 20.265 5.8371-0.65282 13.033-8.8772 12.129-19.198-0.78931-8.8857-4.6964-17.776-10.562-27.021-5.8653-9.2446-13.715-24.063-17.604-23.819zm95.043-28.797c-5.8654-7.1137-16.036-13.156-35.981-12.088-16.497 0.88178-32.933 6.9411-34.422 17.064-1.558 10.666 1.7722 16.234 8.2239 23.463 6.6434 7.4674 25.42 22.045 37.541 22.754 12.129 0.71256 22.691-1.7772 24.251-12.797 1.5655-11.022 6.2524-31.288 0.38715-38.396zm-26.987 173.15c9.3909-8.5388 7.8311-23.113 11.74-41.602 3.9071-18.486 10.951-24.176 15.638-30.574 4.6945-6.4012 15.903-5.5262 17.214-2.8434 1.5692 3.1989-3.2155 24.79-7.8236 38.75-7.0342 21.334-7.4251 29.864-7.8236 40.886-0.32886 9.4103-16.816 16.709-25.42 24.176-8.611 7.4605-16.427 21.332-26.987 24.176-10.562 2.8434-25.429-2.1342-41.467-1.7806-16.038 0.35547-32.074 3.9165-40.678 1.0647-8.6035-2.8366-18.385-16-29.336-24.88-10.951-8.8942-23.86-14.227-27.767-22.758-3.9127-8.532 0-18.844-0.78369-32-0.78368-13.152-4.6926-21.329-8.6073-29.152-3.909-7.8228-1.3118-13.462 5.0854-15.64 9.3872-3.1989 16.038 3.9114 20.733 17.418 4.8994 14.103 9.2462 22.38 10.167 34.135 1.1746 14.928 3.5218 17.772 8.9981 23.105 3.1197 3.0451 8.8685 4.8666 14.909 6.3806-1.1126-2.6674-2.1086-6.1397-1.6087-12.425 0.25751-3.2056 3.1291-4.2685 9.3872-4.624 6.26-0.35364 10.402 1.0714 10.562 3.9166 0.52622 9.3761-1.9845 13.388-3.7887 16.539 3.3677 0.46651 8.3292 0.74841 14.044 0.90228-2.1142-3.8602-4.3732-8.3134-4.3901-15.67-0.009384-4.2139 3.5218-3.5525 9.3872-3.908 5.871-0.35367 11.904-0.41866 12.125 3.1989 0.44733 7.3154-2.2946 12.069-4.8035 16.532 4.2134 0.006882 8.502-0.025558 12.612-0.081985-1.7101-4.8171-3.2249-11.037-2.3341-16.45 0.3533-2.1429 5.4801-2.8434 10.176-3.1989 4.687-0.35367 10.393 1.7566 10.56 4.2617 0.35519 5.5433-1.5053 10.909-3.6139 15.114 2.8171-0.063187 5.2621-0.12817 7.1226-0.17761 1.7722-0.047867 3.5444-0.16237 5.326-0.33844-2.0109-3.4637-3.9785-7.8296-3.7473-11.391 0.1673-2.8691 7.0343-8.8943 12.509-8.5406 4.3601 0.29057 9.0396 1.1279 9.2782 3.2706 0.51306 4.4959-1.0374 9.3865-2.9487 13.47 6.136-2.083 11.798-5.1281 16.354-9.2616zm123.95 148.25s0.59198 7.3632-17.677 13.51c-10.748 3.6175-12.794 5.5177-70.057-13.156-17.252-5.6237-111.23-30.066-187.5-70.751-110.64-59.02-142.15-93.807-144.03-92.439-1.8774 1.3688 22.664 38.752 151.01 101.32 101.58 49.522 137.04 55.114 178.96 68.616 51.407 16.563 56.671 16.917 63.671 24.538 7.6207 8.3064 4.6514 26.305 4.6514 26.305s-93.22-24.08-163.05-50.843c-78.016-29.897-150.24-62.566-219.73-109.86-69.488-47.284-140.37-105.69-186.34-175.99-41.15-62.93-36.427-83.203-36.878-93.153-1.0712-23.492 6.7618-11.939 11.648-3.5526 3.1046 5.3332 23.341 32.402 72.592 84.971 53.923 57.556 121.9 108.79 194.11 152.52 66.283 40.145 138.5 69.367 208.15 95.122 77.082 28.52 140.46 42.827 140.46 42.827zm-534.65 19.552c16.45 0 26.6 11.729 26.6 25.95 0 23.839-23.356 22.575-23.856 26.666-0.50177 4.1011 6.8182 6.9855 18.38 5.3332 7.8556-1.1192 14.993-12.069 17.996-8.8857 3.0032 3.1835-16.391 24.885-34.812 24.885-19.949 0-39.118-15.637-39.118-38.043-0.001862-25.601 15.256-35.905 34.81-35.905zm42.245-0.3553c13.61 0 15.598 4.3181 19.56 15.992 3.6985 10.924 11.904 13.599 13.689 13.518 1.7853-0.088837-4.9934-4.8427-8.6073-13.874-3.1291-7.8143-7.6902-17.062 9.7818-17.062 16.835 0 16.754 6.5413 19.165 12.447 3.9127 9.5948 14.442 16.797 16.036 16.708 1.5937-0.088867-8.2126-9.2411-10.562-17.426-1.8022-6.2763-1.5861-11.375 8.2145-11.375 8.2126 0 13.3 8.5406 20.338 19.916 6.1454 9.9246 12.413 32.411 0.39465 33.417-17.771 1.4832-70.728 2.8999-77.837-1.0629-12.573-7.0248-17.211-15.999-20.733-29.157-4.2811-16-3.8019-22.042 10.56-22.042zm60.629-25.956c-1.9545 2.136-2.3435 13.865-17.602 13.865-15.252 0-26.203-9.9486-26.203-27.73 0-17.773 13.689-27.021 32.069-27.021 18.385 0 33.249 7.4674 47.722 22.751 14.345 15.162 19.387 33.538 26.6 39.114 10.438 8.0638 24.658 5.9689 25.658 7.7904 0.99977 1.8216-13.144 7.8484-12.922 25.065 0.1917 14.943 1.3418 31.138 6.4291 38.969 5.0854 7.8143 10.951 13.501 12.909 13.148 1.9544-0.35547 2.3397-12.438 14.864-12.438 13.689 0 20.729 8.1681 20.729 25.24 0 17.062-14.864 21.688-34.027 21.688s-35.596-10.666-41.852-29.866c-6.26-19.198-12.125-45.157-19.949-63.999-7.8236-18.836-21.512-39.815-25.425-43.376-3.9127-3.5525-7.0399-5.3331-8.9981-3.1988zm87.008 20.721c-19.586-1.0868-21.358-13.961-21.358-13.961s37.816-10.136 90.389-26.618c12.909 6.6539 19.759 9.9724 33.687 15.353-19.334 5.9226-31.353 9.9024-37.178 11.618-45.25 13.325-53.636 14.267-65.539 13.607zm154.38-4.2463c-70.931 26.377-156.12 48.234-156.12 48.234s-2.9862-17.997 4.6908-26.305c8.2145-8.8943 21.907-11.02 64.148-24.538 15.739-5.0272 28.706-8.9678 46.415-14.487 19.453 8.9678 28.755 12.52 40.86 17.096zm145.35 77.036c12.439 0 12.811 12.083 14.76 12.438 1.932 0.35376 7.7616-5.3331 12.811-13.147 5.0422-7.8314 7.7709-25.635 7.0004-40.563-0.77988-14.928-10.748-19.031-9.9942-21.76 0.7442-2.7324 12.556-4.3182 21.638-11.208 9.6747-7.3392 12.537-22.243 26.776-37.406 14.362-15.283 29.114-22.751 47.357-22.751 18.244 0 31.836 9.2479 31.836 27.021 0 17.78-10.872 27.73-26.015 27.73-15.134 0-15.523-11.729-17.472-13.865-1.932-2.1343-5.0422-0.35376-8.923 3.1988-3.8807 3.5612-17.464 24.538-25.234 43.376-7.7634 18.843-13.586 44.801-19.804 63.999-6.2017 19.198-22.512 29.866-41.537 29.866-19.015 0-33.777-4.6257-33.777-21.688 0.003784-17.072 6.9948-25.242 20.577-25.242zm102.11-68.625c9.7292 0 9.9416 5.0991 8.1506 11.375-2.3284 8.1852-10.481 17.426-10.481 17.426s12.031-7.1136 15.923-16.708c2.383-5.9056 2.3041-12.447 19.013-12.447 17.348 0 12.811 9.248 9.7105 17.062-3.5876 9.0309-8.5415 13.874-8.5415 13.874s9.9059-2.5956 13.584-13.518c3.9258-11.674 5.9029-15.992 19.413-15.992 14.256 0 14.726 6.0422 10.481 22.042-3.4993 13.156-8.1055 22.131-20.582 29.157-7.0512 3.9628-59.612 2.5461-77.244 1.0629-11.936-1.0064-5.7057-23.492 0.38895-33.417 6.9817-11.375 12.031-19.916 20.184-19.916zm87.736 59.375c11.58 0.87149 18.624-2.2556 18.242-5.3332-0.37201-3.0689-23.683-2.8262-23.683-26.666 0-14.219 10.082-25.95 26.402-25.95 19.413 0 34.547 10.304 34.547 35.907 0 22.404-19.022 38.501-38.817 38.043-29.548-0.67667-38.312-22.154-34.555-24.885 3.7568-2.7323 7.4421 8.1118 17.863 8.8841z"/>
</svg>
